<svg width="101" height="24" viewBox="0 0 101 24" fill="none" xmlns="http://www.w3.org/2000/svg">
<path fill-rule="evenodd" clip-rule="evenodd" d="M11.9837 15.3081H11.9829H11.9818C6.89503 15.2544 3.60807 12.835 3.60807 9.14487C3.60807 5.45472 6.89503 3.03535 11.9818 2.98162C17.0708 3.03535 20.3573 5.45472 20.3573 9.14487C20.3573 12.835 17.0708 15.2544 11.9837 15.3081ZM12.1322 0.0025971C12.1309 0.00275942 12.0298 0.000973914 11.9788 0C11.9267 0.000649276 11.8254 0.0025971 11.8254 0.0025971C4.8621 0.116058 0 3.87537 0 9.14489C0 14.4144 4.8621 18.1739 11.8238 18.2872C11.8238 18.2872 11.9267 18.2882 11.9774 18.2878C12.0306 18.2883 12.1325 18.2872 12.1325 18.2872C19.0941 18.1739 23.956 14.4144 23.956 9.14489C23.956 3.87537 19.0941 0.116058 12.1322 0.0025971Z" fill="black"/>
<path fill-rule="evenodd" clip-rule="evenodd" d="M88.9769 15.3081H88.9761H88.9748C83.8882 15.2544 80.6012 12.835 80.6012 9.14487C80.6012 5.45472 83.8882 3.03535 88.9748 2.98162C94.0638 3.03535 97.3504 5.45472 97.3504 9.14487C97.3504 12.835 94.0638 15.2544 88.9769 15.3081ZM89.1254 0.0025971C89.1241 0.00275942 89.0231 0.000973914 88.9718 0C88.9199 0.000649276 88.8186 0.0025971 88.8186 0.0025971C81.8553 0.116058 76.9932 3.87537 76.9932 9.14489C76.9932 14.4144 81.8553 18.1739 88.8171 18.2872C88.8171 18.2872 88.9199 18.2882 88.9705 18.2878C89.0239 18.2883 89.1257 18.2872 89.1257 18.2872C96.0872 18.1739 100.949 14.4144 100.949 9.14489C100.949 3.87537 96.0872 0.116058 89.1254 0.0025971Z" fill="black"/>
<path fill-rule="evenodd" clip-rule="evenodd" d="M63.3595 15.3081H63.3587H63.3576C58.271 15.2544 54.9841 12.835 54.9841 9.14487C54.9841 5.45472 58.271 3.03535 63.3576 2.98162C68.4465 3.03535 71.7333 5.45472 71.7333 9.14487C71.7333 12.835 68.4465 15.2544 63.3595 15.3081ZM63.5082 0.0025971C63.5069 0.00275942 63.4059 0.000973914 63.3546 0C63.3027 0.000649276 63.2014 0.0025971 63.2014 0.0025971C59.8841 0.0566493 57.0445 0.938691 54.9795 2.41661V0.858018H51.376V24H54.9795V15.8735C57.0442 17.3513 59.8833 18.2333 63.1998 18.2872C63.2001 18.2873 63.3027 18.2882 63.3532 18.2878C63.4067 18.2883 63.5083 18.2872 63.5083 18.2872C70.4699 18.1739 75.332 14.4144 75.332 9.14489C75.332 3.87537 70.4699 0.116058 63.5082 0.0025971Z" fill="black"/>
<path fill-rule="evenodd" clip-rule="evenodd" d="M37.668 15.3081H37.6672H37.6662C32.5794 15.2544 29.2925 12.835 29.2925 9.14487C29.2925 5.45472 32.5794 3.03535 37.6662 2.98162C42.755 3.03535 46.0417 5.45472 46.0417 9.14487C46.0417 12.835 42.755 15.2544 37.668 15.3081ZM37.8226 0.0025971C37.8212 0.00275942 37.7202 0.000973914 37.6691 0C37.617 0.000649276 37.5157 0.0025971 37.5157 0.0025971C34.1984 0.0566493 31.3588 0.938691 29.2937 2.41661V0.858018H25.6904V24H29.2937V15.8735C31.3586 17.3513 34.1977 18.2333 37.5141 18.2872C37.5141 18.2872 37.617 18.2882 37.6676 18.2878C37.721 18.2883 37.8228 18.2872 37.8228 18.2872C44.7843 18.1739 49.6463 14.4144 49.6463 9.14489C49.6463 3.87537 44.7843 0.116058 37.8226 0.0025971Z" fill="black"/>
</svg>
